<svg width="18" height="18" viewBox="0 0 18 18" fill="none" xmlns="http://www.w3.org/2000/svg">
<path opacity="0.987" fill-rule="evenodd" clip-rule="evenodd" d="M8.11012 1.19359C8.92575 1.10246 9.40837 1.10246 10.2847 1.19359C11.836 1.42319 13.2741 2.14026 14.391 3.24109C13.6363 3.95449 12.8914 4.67831 12.1567 5.41234C10.7497 4.21984 9.17925 3.94459 7.44525 4.58659C6.17325 5.17159 5.2875 6.11959 4.788 7.43059C3.97174 6.8229 3.16612 6.20105 2.3715 5.56534C2.31627 5.53627 2.2532 5.52563 2.1915 5.53496C3.45375 3.10121 5.42625 1.65371 8.109 1.19246" fill="#F44336"/>
<path opacity="0.997" fill-rule="evenodd" clip-rule="evenodd" d="M2.18926 5.53508C2.25301 5.52533 2.31338 5.53546 2.37038 5.56546C3.16501 6.20117 3.97063 6.82302 4.78688 7.43071C4.65844 7.94152 4.57747 8.46311 4.54501 8.98883C4.57276 9.49733 4.65338 9.99646 4.78688 10.4862L2.25001 12.5056C1.14526 10.1971 1.12501 7.87358 2.18926 5.53508Z" fill="#FFC107"/>
<path opacity="0.999" fill-rule="evenodd" clip-rule="evenodd" d="M14.2706 14.9513C13.4807 14.2547 12.6538 13.6013 11.7934 12.9938C12.6559 12.3848 13.1794 11.5493 13.3639 10.4873H9.13727V7.5522C11.5748 7.53195 14.0111 7.55258 16.4464 7.61408C16.9084 10.1228 16.3748 12.3848 14.8455 14.4001C14.6637 14.5934 14.4711 14.7774 14.2706 14.9513Z" fill="#448AFF"/>
<path opacity="0.993" fill-rule="evenodd" clip-rule="evenodd" d="M4.78688 10.4873C5.70938 12.7801 7.40063 13.8503 9.86063 13.6981C10.5512 13.6181 11.2133 13.3769 11.7934 12.9938C12.6544 13.6028 13.4801 14.2553 14.2706 14.9513C13.0181 16.0768 11.4211 16.7446 9.74025 16.8458C9.35836 16.8763 8.97464 16.8763 8.59275 16.8458C5.72925 16.5083 3.615 15.0616 2.25 12.5056L4.78688 10.4873Z" fill="#43A047"/>
</svg>
